HIERARCHY
ROOT mixamorig6:Hips
{
	OFFSET 0.000000 96.667885 2.502632
	CHANNELS 6 Xposition Yposition Zposition Xrotation Yrotation Zrotation
	JOINT mixamorig6:Spine
	{
		OFFSET 0.000000 10.236633 -0.985389
		CHANNELS 6 Xposition Yposition Zposition Xrotation Yrotation Zrotation
		JOINT mixamorig6:Spine1
		{
			OFFSET 0.000000 11.942749 -1.149607
			CHANNELS 6 Xposition Yposition Zposition Xrotation Yrotation Zrotation
			JOINT mixamorig6:Spine2
			{
				OFFSET 0.000000 13.648842 -1.313846
				CHANNELS 3 Xrotation Yrotation Zrotation
				JOINT mixamorig6:Neck
				{
					OFFSET 0.000000 15.354965 -1.478083
					CHANNELS 6 Xposition Yposition Zposition Xrotation Yrotation Zrotation
					JOINT mixamorig6:Head
					{
						OFFSET 0.000000 3.779831 1.345864
						CHANNELS 6 Xposition Yposition Zposition Xrotation Yrotation Zrotation
						JOINT mixamorig6:HeadTop_End
						{
							OFFSET 0.000000 25.046341 8.918161
							CHANNELS 6 Xposition Yposition Zposition Xrotation Yrotation Zrotation
							End Site
							{
								OFFSET 0.000000 26.586700 0.000000
							}
						}
					}
				}
				JOINT mixamorig6:LeftShoulder
				{
					OFFSET 6.191272 13.567642 -1.482505
					CHANNELS 6 Xposition Yposition Zposition Xrotation Yrotation Zrotation
					JOINT mixamorig6:LeftArm
					{
						OFFSET 12.640412 -3.468536 -0.008860
						CHANNELS 3 Xrotation Yrotation Zrotation
						JOINT mixamorig6:LeftForeArm
						{
							OFFSET 26.983429 -1.357040 -1.711584
							CHANNELS 6 Xposition Yposition Zposition Xrotation Yrotation Zrotation
							JOINT mixamorig6:LeftHand
							{
								OFFSET 25.529598 0.388855 1.340383
								CHANNELS 6 Xposition Yposition Zposition Xrotation Yrotation Zrotation
								JOINT mixamorig6:LeftHandThumb1
								{
									OFFSET 2.664818 -1.585159 2.695595
									CHANNELS 6 Xposition Yposition Zposition Xrotation Yrotation Zrotation
									JOINT mixamorig6:LeftHandThumb2
									{
										OFFSET 2.131821 -1.268082 2.156428
										CHANNELS 6 Xposition Yposition Zposition Xrotation Yrotation Zrotation
										JOINT mixamorig6:LeftHandThumb3
										{
											OFFSET 2.134758 -1.785706 2.056400
											CHANNELS 6 Xposition Yposition Zposition Xrotation Yrotation Zrotation
											JOINT mixamorig6:LeftHandThumb4
											{
												OFFSET 2.353638 -1.035980 1.193479
												CHANNELS 6 Xposition Yposition Zposition Xrotation Yrotation Zrotation
												End Site
												{
													OFFSET 2.058075 -1.021118 1.660997
												}
											}
										}
									}
								}
								JOINT mixamorig6:LeftHandIndex1
								{
									OFFSET 9.392868 -0.766861 3.613787
									CHANNELS 6 Xposition Yposition Zposition Xrotation Yrotation Zrotation
									JOINT mixamorig6:LeftHandIndex2
									{
										OFFSET 2.960487 -0.635696 0.718980
										CHANNELS 6 Xposition Yposition Zposition Xrotation Yrotation Zrotation
										JOINT mixamorig6:LeftHandIndex3
										{
											OFFSET 2.763588 -0.688721 0.675042
											CHANNELS 6 Xposition Yposition Zposition Xrotation Yrotation Zrotation
											JOINT mixamorig6:LeftHandIndex4
											{
												OFFSET 2.327911 -0.684525 0.573219
												CHANNELS 6 Xposition Yposition Zposition Xrotation Yrotation Zrotation
												End Site
												{
													OFFSET 2.328133 -0.684555 0.572292
												}
											}
										}
									}
								}
								JOINT mixamorig6:LeftHandMiddle1
								{
									OFFSET 10.002861 -0.514282 1.273262
									CHANNELS 6 Xposition Yposition Zposition Xrotation Yrotation Zrotation
									JOINT mixamorig6:LeftHandMiddle2
									{
										OFFSET 3.100037 -0.666000 0.232088
										CHANNELS 6 Xposition Yposition Zposition Xrotation Yrotation Zrotation
										JOINT mixamorig6:LeftHandMiddle3
										{
											OFFSET 3.000908 -0.860992 0.227440
											CHANNELS 6 Xposition Yposition Zposition Xrotation Yrotation Zrotation
											JOINT mixamorig6:LeftHandMiddle4
											{
												OFFSET 2.603920 -0.402237 0.192975
												CHANNELS 6 Xposition Yposition Zposition Xrotation Yrotation Zrotation
												End Site
												{
													OFFSET 2.604004 -0.402267 0.191760
												}
											}
										}
									}
								}
								JOINT mixamorig6:LeftHandRing1
								{
									OFFSET 10.176247 -0.687271 -1.024964
									CHANNELS 6 Xposition Yposition Zposition Xrotation Yrotation Zrotation
									JOINT mixamorig6:LeftHandRing2
									{
										OFFSET 2.713165 -0.468262 -0.139639
										CHANNELS 6 Xposition Yposition Zposition Xrotation Yrotation Zrotation
										JOINT mixamorig6:LeftHandRing3
										{
											OFFSET 2.645676 -0.563507 -0.136173
											CHANNELS 6 Xposition Yposition Zposition Xrotation Yrotation Zrotation
											JOINT mixamorig6:LeftHandRing4
											{
												OFFSET 2.096436 0.105484 -0.099753
												CHANNELS 6 Xposition Yposition Zposition Xrotation Yrotation Zrotation
												End Site
												{
													OFFSET 2.095978 0.105392 -0.108981
												}
											}
										}
									}
								}
								JOINT mixamorig6:LeftHandPinky1
								{
									OFFSET 9.361061 -0.755753 -3.332805
									CHANNELS 6 Xposition Yposition Zposition Xrotation Yrotation Zrotation
									JOINT mixamorig6:LeftHandPinky2
									{
										OFFSET 2.493256 -0.718643 -0.328037
										CHANNELS 6 Xposition Yposition Zposition Xrotation Yrotation Zrotation
										JOINT mixamorig6:LeftHandPinky3
										{
											OFFSET 2.075089 -0.611618 -0.265236
											CHANNELS 6 Xposition Yposition Zposition Xrotation Yrotation Zrotation
											JOINT mixamorig6:LeftHandPinky4
											{
												OFFSET 1.597534 -0.767517 -0.212978
												CHANNELS 6 Xposition Yposition Zposition Xrotation Yrotation Zrotation
												End Site
												{
													OFFSET 1.598145 -0.767502 -0.208416
												}
											}
										}
									}
								}
							}
						}
					}
				}
				JOINT mixamorig6:RightShoulder
				{
					OFFSET -6.191271 13.567764 -1.473656
					CHANNELS 6 Xposition Yposition Zposition Xrotation Yrotation Zrotation
					JOINT mixamorig6:RightArm
					{
						OFFSET -12.640451 -3.468536 0.008855
						CHANNELS 6 Xposition Yposition Zposition Xrotation Yrotation Zrotation
						JOINT mixamorig6:RightForeArm
						{
							OFFSET -26.983360 -1.357269 -1.679521
							CHANNELS 6 Xposition Yposition Zposition Xrotation Yrotation Zrotation
							JOINT mixamorig6:RightHand
							{
								OFFSET -25.529621 0.388916 1.295802
								CHANNELS 6 Xposition Yposition Zposition Xrotation Yrotation Zrotation
								JOINT mixamorig6:RightHandThumb1
								{
									OFFSET -2.754967 -1.814850 2.931677
									CHANNELS 6 Xposition Yposition Zposition Xrotation Yrotation Zrotation
									JOINT mixamorig6:RightHandThumb2
									{
										OFFSET -2.203964 -1.451630 2.345282
										CHANNELS 6 Xposition Yposition Zposition Xrotation Yrotation Zrotation
										JOINT mixamorig6:RightHandThumb3
										{
											OFFSET -2.192505 -1.537354 1.772290
											CHANNELS 6 Xposition Yposition Zposition Xrotation Yrotation Zrotation
											JOINT mixamorig6:RightHandThumb4
											{
												OFFSET -1.971581 -1.055405 1.099722
												CHANNELS 6 Xposition Yposition Zposition Xrotation Yrotation Zrotation
												End Site
												{
													OFFSET -1.753761 -1.042648 1.430940
												}
											}
										}
									}
								}
								JOINT mixamorig6:RightHandIndex1
								{
									OFFSET -9.493843 -0.803864 3.610268
									CHANNELS 6 Xposition Yposition Zposition Xrotation Yrotation Zrotation
									JOINT mixamorig6:RightHandIndex2
									{
										OFFSET -2.960968 -0.607559 0.752318
										CHANNELS 6 Xposition Yposition Zposition Xrotation Yrotation Zrotation
										JOINT mixamorig6:RightHandIndex3
										{
											OFFSET -2.753647 -0.696289 0.706242
											CHANNELS 6 Xposition Yposition Zposition Xrotation Yrotation Zrotation
											JOINT mixamorig6:RightHandIndex4
											{
												OFFSET -2.242775 -0.647705 0.579545
												CHANNELS 6 Xposition Yposition Zposition Xrotation Yrotation Zrotation
												End Site
												{
													OFFSET -2.243126 -0.647751 0.578124
												}
											}
										}
									}
								}
								JOINT mixamorig6:RightHandMiddle1
								{
									OFFSET -10.016167 -0.616241 1.280610
									CHANNELS 6 Xposition Yposition Zposition Xrotation Yrotation Zrotation
									JOINT mixamorig6:RightHandMiddle2
									{
										OFFSET -3.173973 -0.609833 0.210435
										CHANNELS 6 Xposition Yposition Zposition Xrotation Yrotation Zrotation
										JOINT mixamorig6:RightHandMiddle3
										{
											OFFSET -2.968605 -0.833298 0.200818
											CHANNELS 6 Xposition Yposition Zposition Xrotation Yrotation Zrotation
											JOINT mixamorig6:RightHandMiddle4
											{
												OFFSET -2.557388 -0.635925 0.171848
												CHANNELS 6 Xposition Yposition Zposition Xrotation Yrotation Zrotation
												End Site
												{
													OFFSET -2.557388 -0.635925 0.171912
												}
											}
										}
									}
								}
								JOINT mixamorig6:RightHandRing1
								{
									OFFSET -10.283852 -0.719208 -0.990774
									CHANNELS 6 Xposition Yposition Zposition Xrotation Yrotation Zrotation
									JOINT mixamorig6:RightHandRing2
									{
										OFFSET -2.780045 -0.502609 -0.198860
										CHANNELS 6 Xposition Yposition Zposition Xrotation Yrotation Zrotation
										JOINT mixamorig6:RightHandRing3
										{
											OFFSET -2.598206 -0.462601 -0.185517
											CHANNELS 6 Xposition Yposition Zposition Xrotation Yrotation Zrotation
											JOINT mixamorig6:RightHandRing4
											{
												OFFSET -2.159935 -0.302567 -0.153056
												CHANNELS 6 Xposition Yposition Zposition Xrotation Yrotation Zrotation
												End Site
												{
													OFFSET -2.159828 -0.302582 -0.154502
												}
											}
										}
									}
								}
								JOINT mixamorig6:RightHandPinky1
								{
									OFFSET -9.223343 -0.890610 -3.292538
									CHANNELS 6 Xposition Yposition Zposition Xrotation Yrotation Zrotation
									JOINT mixamorig6:RightHandPinky2
									{
										OFFSET -2.568039 -0.515869 -0.289323
										CHANNELS 6 Xposition Yposition Zposition Xrotation Yrotation Zrotation
										JOINT mixamorig6:RightHandPinky3
										{
											OFFSET -2.082893 -0.669281 -0.232441
											CHANNELS 6 Xposition Yposition Zposition Xrotation Yrotation Zrotation
											JOINT mixamorig6:RightHandPinky4
											{
												OFFSET -1.669296 -0.833755 -0.188569
												CHANNELS 6 Xposition Yposition Zposition Xrotation Yrotation Zrotation
												End Site
												{
													OFFSET -1.669579 -0.833740 -0.186182
												}
											}
										}
									}
								}
							}
						}
					}
				}
			}
		}
	}
	JOINT mixamorig6:LeftUpLeg
	{
		OFFSET 9.149316 -5.691643 -0.209776
		CHANNELS 6 Xposition Yposition Zposition Xrotation Yrotation Zrotation
		JOINT mixamorig6:LeftLeg
		{
			OFFSET 3.350564 -40.639099 -3.165111
			CHANNELS 6 Xposition Yposition Zposition Xrotation Yrotation Zrotation
			JOINT mixamorig6:LeftFoot
			{
				OFFSET 2.479871 -38.813557 -2.495497
				CHANNELS 3 Xrotation Yrotation Zrotation
				JOINT mixamorig6:LeftToeBase
				{
					OFFSET 3.266852 -11.730350 15.127145
					CHANNELS 6 Xposition Yposition Zposition Xrotation Yrotation Zrotation
					JOINT mixamorig6:LeftToe_End
					{
						OFFSET 1.671803 -0.049752 6.701402
						CHANNELS 3 Xrotation Yrotation Zrotation
						End Site
						{
							OFFSET 1.671803 -0.049752 6.701401
						}
					}
				}
			}
		}
	}
	JOINT mixamorig6:RightUpLeg
	{
		OFFSET -9.149317 -5.691650 -0.455456
		CHANNELS 6 Xposition Yposition Zposition Xrotation Yrotation Zrotation
		JOINT mixamorig6:RightLeg
		{
			OFFSET -3.350562 -40.639099 -2.947695
			CHANNELS 6 Xposition Yposition Zposition Xrotation Yrotation Zrotation
			JOINT mixamorig6:RightFoot
			{
				OFFSET -2.479888 -38.813435 -2.831225
				CHANNELS 3 Xrotation Yrotation Zrotation
				JOINT mixamorig6:RightToeBase
				{
					OFFSET -3.266907 -11.731069 15.306976
					CHANNELS 6 Xposition Yposition Zposition Xrotation Yrotation Zrotation
					JOINT mixamorig6:RightToe_End
					{
						OFFSET -1.671818 -0.050066 7.010759
						CHANNELS 3 Xrotation Yrotation Zrotation
						End Site
						{
							OFFSET -1.671818 -0.050066 7.010759
						}
					}
				}
			}
		}
	}
}
MOTION
Frames: 3
Frame Time: 0.033333
-0.018491 49.592617 3.260141 84.827234 -0.527244 -1.198903 -0.000000 10.236647 -0.985387 8.501696 0.198960 -0.108781 -0.000000 11.942740 -1.149615 8.591131 0.387916 -0.544964 8.586010 0.419398 -0.640843 -0.000000 15.354967 -1.478077 1.687887 -0.951455 1.240477 0.000000 3.779823 1.345871 1.687884 -0.951455 1.240478 -0.000000 25.046341 8.918162 0.000001 -0.000000 0.000000 6.191316 13.567680 -1.482501 0.677522 -3.832291 5.639588 -33.583637 -42.880467 -17.414826 26.983404 -1.357121 -1.711571 -3.528584 -50.792449 -5.376629 25.529623 0.388769 1.340395 1.769088 4.313631 97.632705 2.664803 -1.585136 2.695576 -14.806733 -11.189313 -3.970367 2.131846 -1.268101 2.156467 0.916462 7.863601 24.094870 2.134760 -1.785666 2.056407 13.194020 -38.989387 47.991457 2.353641 -1.035980 1.193475 0.000002 0.000000 -0.000004 9.392810 -0.766835 3.613766 -1.010740 -8.906520 5.365469 2.960581 -0.635695 0.718999 0.854311 0.409892 -3.053092 2.763558 -0.688699 0.675030 0.760284 0.438932 -2.557818 2.327916 -0.684554 0.573218 0.000000 0.000000 0.000001 10.002897 -0.514194 1.273252 -0.720602 -0.048477 7.507637 3.100029 -0.666037 0.232084 0.215374 0.509516 -1.093847 3.000934 -0.860959 0.227439 1.238262 0.408738 -14.131097 2.603920 -0.402250 0.192978 0.000000 0.000001 -0.000000 10.176310 -0.687088 -1.024982 -0.053695 0.873088 6.507260 2.713214 -0.468339 -0.139645 -0.007062 0.446065 -1.954476 2.645599 -0.563582 -0.136167 -0.785162 1.017166 -20.796300 2.096430 0.105499 -0.099757 -0.000000 -0.000002 -0.000001 9.361004 -0.755737 -3.332842 -1.926941 16.449771 18.936356 2.493235 -0.718571 -0.328037 -0.322642 0.833343 -4.584020 2.075157 -0.611723 -0.265251 0.660360 0.364415 4.154703 1.597535 -0.767511 -0.212975 -0.000000 0.000002 0.000003 -6.191313 13.567689 -1.473644 0.818209 5.109419 -5.748236 -12.640404 -3.468563 0.008861 -34.090246 40.008298 5.994744 -26.983387 -1.357133 -1.679534 -4.036200 54.514021 5.779144 -25.529633 0.388771 1.295812 -11.226351 -9.404964 -97.348651 -2.754980 -1.814700 2.931636 -20.715059 -2.468199 -1.013823 -2.203989 -1.451746 2.345308 10.319155 -7.729711 -8.685421 -2.192501 -1.537288 1.772275 24.873901 42.155723 -59.349501 -1.971571 -1.055406 1.099726 -0.000001 0.000003 -0.000001 -9.493782 -0.803882 3.610290 -2.339421 10.443216 -2.664838 -2.961122 -0.607488 0.752360 0.686692 -0.297949 2.387115 -2.753568 -0.696263 0.706222 0.862189 -0.260586 3.025607 -2.242767 -0.647708 0.579545 -0.000000 0.000001 -0.000000 -10.016220 -0.616186 1.280611 -1.732586 10.852490 -2.984557 -3.173917 -0.609874 0.210432 0.102263 -0.375786 0.193183 -2.968586 -0.833276 0.200818 0.716659 -0.342630 8.673133 -2.557398 -0.635911 0.171847 -0.000000 0.000000 0.000001 -10.283836 -0.719195 -0.990776 -1.047171 8.595096 -1.184104 -2.780105 -0.502683 -0.198863 -0.227062 -0.325459 4.135094 -2.598185 -0.462553 -0.185520 -0.459972 -0.527307 8.079310 -2.159935 -0.302582 -0.153058 -0.000001 0.000000 -0.000000 -9.223332 -0.890582 -3.292539 1.359517 -3.979404 -1.340414 -2.568108 -0.515796 -0.289332 0.275717 -0.472880 -1.420278 -2.082876 -0.669341 -0.232443 0.535331 -0.348451 -3.661661 -1.669293 -0.833753 -0.188574 0.000001 0.000000 0.000002 9.149312 -5.691628 -0.209773 -64.448115 -3.981570 1.977581 3.350563 -40.639114 -3.165115 72.966194 6.649029 -0.609729 -9.443198 -0.568388 2.886414 3.266842 -11.730353 15.127164 -82.595627 9.160577 -13.299200 0.000000 0.000001 -0.000001 -9.149313 -5.691620 -0.455458 -58.424837 -1.781866 1.669190 -3.350561 -40.639130 -2.947692 64.933461 6.972666 3.783673 -12.866213 3.615938 -12.222362 -3.266903 -11.731064 15.306963 -86.491519 1.242981 2.422187 -0.000001 0.000001 -0.000001 
0.112824 50.062363 3.022127 84.543877 -0.298859 -0.921193 -0.000000 10.236640 -0.985378 8.637135 0.149314 -0.161606 0.000000 11.942745 -1.149609 8.702248 0.328447 -0.558506 8.697438 0.357392 -0.646863 0.000000 15.354965 -1.478080 1.174797 -0.955837 1.142493 0.000000 3.779813 1.345867 1.174792 -0.955837 1.142493 0.000000 25.046341 8.918167 0.000003 -0.000000 0.000000 6.191314 13.567686 -1.482506 0.731726 -4.267956 5.517338 -34.057485 -43.757361 -17.218863 26.983400 -1.357117 -1.711577 -3.295556 -48.846634 -5.199829 25.529625 0.388782 1.340393 1.528423 3.633371 97.563781 2.664817 -1.585101 2.695582 -14.795407 -11.199341 -3.889664 2.131854 -1.268084 2.156474 0.916467 7.863625 24.094869 2.134763 -1.785670 2.056403 13.194018 -38.989390 47.991440 2.353645 -1.035975 1.193474 0.000004 0.000002 -0.000003 9.392801 -0.766839 3.613770 -1.004121 -8.897778 5.445544 2.960590 -0.635673 0.719001 0.854313 0.409871 -3.053099 2.763564 -0.688702 0.675036 0.760283 0.438938 -2.557823 2.327912 -0.684539 0.573218 -0.000001 0.000001 -0.000000 10.002899 -0.514196 1.273262 -0.726280 -0.039358 7.586696 3.100020 -0.666017 0.232084 0.215375 0.509507 -1.093859 3.000938 -0.860936 0.227440 1.238260 0.408735 -14.131090 2.603920 -0.402236 0.192979 0.000001 0.000001 -0.000000 10.176297 -0.687073 -1.024974 -0.060797 0.883068 6.586185 2.713221 -0.468355 -0.139646 -0.007065 0.446033 -1.954478 2.645589 -0.563548 -0.136167 -0.785170 1.017149 -20.796295 2.096425 0.105514 -0.099750 -0.000001 -0.000000 0.000001 9.361014 -0.755723 -3.332836 -1.947722 16.456496 19.019691 2.493251 -0.718578 -0.328040 -0.322646 0.833352 -4.584027 2.075174 -0.611715 -0.265253 0.660363 0.364416 4.154696 1.597543 -0.767523 -0.212977 -0.000001 -0.000000 0.000003 -6.191310 13.567671 -1.473646 0.809300 5.128246 -5.630262 -12.640400 -3.468560 0.008856 -35.492033 41.089773 6.883486 -26.983393 -1.357141 -1.679538 -3.739999 52.409486 5.542407 -25.529596 0.388788 1.295816 -10.587078 -8.457150 -97.297937 -2.754993 -1.814723 2.931628 -20.526745 -2.879860 -0.013823 -2.203988 -1.451761 2.345302 10.319143 -7.729704 -8.685432 -2.192491 -1.537284 1.772259 24.873898 42.155689 -59.349481 -1.971576 -1.055405 1.099725 -0.000002 0.000002 0.000001 -9.493781 -0.803892 3.610289 -2.339427 10.443218 -2.664832 -2.961137 -0.607492 0.752357 0.686692 -0.297948 2.387105 -2.753565 -0.696255 0.706215 0.862187 -0.260573 3.025616 -2.242774 -0.647705 0.579541 -0.000000 0.000001 -0.000000 -10.016215 -0.616194 1.280610 -1.732594 10.852479 -2.984552 -3.173931 -0.609899 0.210436 0.102263 -0.375778 0.193180 -2.968589 -0.833287 0.200819 0.716647 -0.342603 8.673124 -2.557384 -0.635924 0.171852 -0.000000 0.000000 -0.000002 -10.283829 -0.719189 -0.990777 -1.047183 8.595114 -1.184104 -2.780100 -0.502678 -0.198859 -0.227061 -0.325458 4.135099 -2.598201 -0.462558 -0.185515 -0.459971 -0.527322 8.079320 -2.159933 -0.302582 -0.153053 0.000001 0.000001 -0.000001 -9.223334 -0.890602 -3.292542 1.359514 -3.979405 -1.340413 -2.568104 -0.515801 -0.289336 0.275716 -0.472876 -1.420280 -2.082858 -0.669325 -0.232438 0.535328 -0.348458 -3.661649 -1.669297 -0.833755 -0.188575 -0.000001 0.000001 0.000000 9.149313 -5.691623 -0.209759 -64.604020 -3.880205 1.456118 3.350565 -40.639114 -3.165114 72.832616 6.634896 -0.609259 -8.820436 -0.578232 3.277827 3.266846 -11.730348 15.127164 -83.097133 9.304359 -13.420410 0.000000 -0.000001 0.000000 -9.149311 -5.691619 -0.455455 -58.641183 -3.176627 0.433114 -3.350563 -40.639130 -2.947685 64.632079 6.703528 4.170695 -11.999685 3.227923 -13.500749 -3.266902 -11.731071 15.306963 -88.077414 -0.619822 4.795037 0.000000 -0.000001 0.000000 
0.313651 50.206936 2.885889 84.601148 -0.115883 -0.593670 0.000000 10.236632 -0.985384 8.577383 0.112045 -0.226743 0.000000 11.942752 -1.149613 8.637443 0.254029 -0.615869 8.632663 0.284485 -0.694394 0.000000 15.354972 -1.478076 0.311436 -0.995220 1.077936 -0.000000 3.779817 1.345861 0.311399 -0.995219 1.077937 -0.000000 25.046356 8.918150 0.000001 -0.000000 -0.000000 6.191313 13.567690 -1.482502 0.759838 -4.535962 4.974245 -33.442621 -44.472373 -16.224722 26.983408 -1.357091 -1.711567 -3.210307 -48.094354 -5.136517 25.529613 0.388789 1.340389 1.479222 3.358305 97.538428 2.664817 -1.585138 2.695574 -14.779035 -11.211961 -3.802231 2.131850 -1.268088 2.156469 0.916477 7.863616 24.094869 2.134763 -1.785662 2.056402 13.194022 -38.989394 47.991467 2.353633 -1.035986 1.193478 0.000005 0.000003 -0.000001 9.392809 -0.766833 3.613770 -0.987624 -8.890186 5.533150 2.960583 -0.635692 0.719001 0.854315 0.409876 -3.053103 2.763563 -0.688703 0.675038 0.760287 0.438937 -2.557820 2.327920 -0.684542 0.573220 -0.000001 -0.000002 -0.000000 10.002890 -0.514188 1.273260 -0.732569 -0.030607 7.672455 3.100034 -0.666024 0.232090 0.215378 0.509523 -1.093852 3.000942 -0.860955 0.227436 1.238253 0.408725 -14.131094 2.603920 -0.402239 0.192975 0.000000 -0.000000 -0.000000 10.176306 -0.687074 -1.024977 -0.068617 0.892741 6.671830 2.713220 -0.468346 -0.139636 -0.007064 0.446036 -1.954481 2.645592 -0.563561 -0.136170 -0.785170 1.017162 -20.796300 2.096421 0.105500 -0.099752 -0.000000 0.000001 -0.000000 9.361008 -0.755716 -3.332835 -1.970382 16.462644 19.110067 2.493227 -0.718582 -0.328040 -0.322634 0.833353 -4.584027 2.075170 -0.611731 -0.265254 0.660361 0.364427 4.154707 1.597535 -0.767514 -0.212982 -0.000001 0.000001 0.000003 -6.191312 13.567677 -1.473647 0.710521 4.442726 -5.197924 -12.640399 -3.468556 0.008866 -35.975849 42.588863 7.260697 -26.983391 -1.357136 -1.679535 -3.549183 50.937768 5.393609 -25.529625 0.388778 1.295811 -10.470139 -7.703671 -97.237134 -2.754995 -1.814721 2.931634 -20.426990 -3.089734 0.504399 -2.203991 -1.451750 2.345308 10.319155 -7.729688 -8.685424 -2.192501 -1.537284 1.772270 24.873889 42.155709 -59.349481 -1.971576 -1.055390 1.099725 -0.000002 0.000000 0.000001 -9.493778 -0.803895 3.610287 -2.339429 10.443238 -2.664827 -2.961127 -0.607501 0.752355 0.686703 -0.297974 2.387111 -2.753573 -0.696269 0.706217 0.862186 -0.260584 3.025612 -2.242770 -0.647706 0.579541 -0.000001 0.000000 -0.000002 -10.016225 -0.616187 1.280611 -1.732595 10.852487 -2.984555 -3.173915 -0.609889 0.210432 0.102268 -0.375765 0.193195 -2.968589 -0.833271 0.200819 0.716651 -0.342613 8.673124 -2.557394 -0.635910 0.171848 0.000000 0.000000 -0.000001 -10.283831 -0.719189 -0.990775 -1.047176 8.595113 -1.184097 -2.780102 -0.502688 -0.198866 -0.227060 -0.325461 4.135099 -2.598194 -0.462555 -0.185515 -0.459971 -0.527310 8.079314 -2.159932 -0.302582 -0.153052 0.000000 -0.000001 -0.000001 -9.223333 -0.890593 -3.292536 1.359511 -3.979399 -1.340395 -2.568094 -0.515812 -0.289333 0.275723 -0.472883 -1.420287 -2.082868 -0.669327 -0.232444 0.535328 -0.348450 -3.661665 -1.669309 -0.833740 -0.188567 -0.000002 0.000001 0.000002 9.149311 -5.691634 -0.209769 -65.129310 -3.372499 1.105912 3.350566 -40.639111 -3.165115 73.186269 7.664536 -0.862721 -8.330473 -0.594579 3.734874 3.266840 -11.730345 15.127165 -81.027005 8.714299 -13.240281 0.000000 0.000001 -0.000000 -9.149312 -5.691622 -0.455445 -59.048597 -3.366892 0.112404 -3.350561 -40.639130 -2.947683 64.697171 5.884308 4.101561 -11.813398 2.440501 -13.945809 -3.266908 -11.731066 15.306957 -89.178003 -2.146667 6.612123 0.000001 -0.000000 -0.000002 
